<?xml version="1.0" standalone="no"?>
<!DOCTYPE svg PUBLIC "-//W3C//DTD SVG 20010904//EN"
 "http://www.w3.org/TR/2001/REC-SVG-20010904/DTD/svg10.dtd">
<svg version="1.0" xmlns="http://www.w3.org/2000/svg"
 width="260.000000pt" height="260.000000pt" viewBox="0 0 260.000000 260.000000"
 preserveAspectRatio="xMidYMid meet">
<metadata>
Created by potrace 1.11, written by Peter Selinger 2001-2013
</metadata>
<g transform="translate(0.000000,260.000000) scale(0.100000,-0.100000)"
fill="#000000" stroke="none">
<path d="M426 2295 c-49 -17 -93 -59 -117 -110 -18 -38 -19 -83 -19 -875 0
-793 1 -837 19 -876 22 -48 52 -78 103 -105 35 -18 71 -19 878 -19 807 0 843
1 878 19 51 27 81 57 103 105 18 39 19 83 19 874 0 910 2 871 -58 936 -15 16
-45 37 -67 47 -38 18 -83 19 -870 18 -679 0 -837 -2 -869 -14z m1715 -87 c70
-39 67 7 65 -909 -1 -889 2 -842 -54 -884 -26 -20 -44 -20 -842 -22 -891 -2
-877 -3 -917 55 -17 26 -18 70 -20 837 -1 523 2 824 8 849 12 45 50 83 87 88
15 2 389 4 832 5 788 1 806 1 841 -19z"/>
<path d="M551 2113 c-19 -10 -44 -31 -55 -46 -21 -28 -21 -38 -24 -745 -2
-668 -1 -719 15 -751 37 -72 50 -76 280 -79 113 -2 209 0 213 5 4 4 11 80 14
169 8 187 0 223 -61 264 -20 13 -41 37 -47 52 -19 44 -12 416 10 558 16 99 82
305 125 391 24 49 79 103 91 91 6 -6 12 -279 14 -688 3 -374 6 -704 8 -734 2
-30 5 -67 5 -82 l1 -28 160 0 c145 0 160 2 161 18 1 9 3 28 4 42 2 14 6 86 9
160 3 74 9 182 12 240 l5 105 -45 18 c-56 23 -113 78 -124 120 -12 44 -4 287
13 407 2 14 7 57 11 95 3 39 8 79 9 90 2 11 4 27 4 36 1 19 50 33 52 15 1 -6
2 -135 3 -286 l1 -274 25 0 25 0 2 278 c1 288 3 299 42 289 14 -4 16 -32 15
-276 0 -150 1 -277 3 -282 5 -15 43 -16 44 -2 1 7 2 134 3 282 l1 270 30 0 30
0 0 -280 c0 -300 -3 -283 44 -276 6 0 10 103 10 244 0 346 -2 317 20 317 15 0
20 -10 26 -57 3 -32 8 -71 10 -88 26 -206 37 -449 23 -501 -11 -41 -71 -99
-126 -121 l-43 -18 6 -130 c5 -116 10 -208 20 -370 1 -27 3 -54 4 -58 0 -5 88
-7 195 -5 178 3 197 5 223 24 66 48 63 15 63 794 0 779 3 746 -63 794 -28 21
-38 21 -745 24 -668 2 -719 1 -751 -15z"/>
</g>
</svg>
